<mxfile host="app.diagrams.net" modified="2023-09-30T10:11:55.291Z" agent="Mozilla/5.0 (X11; Linux x86_64) AppleWebKit/537.36 (KHTML, like Gecko) Chrome/114.0.0.0 Safari/537.36" etag="4BHxTna-QoPW-zg0r6TI" version="22.0.0" type="github">
  <diagram name="Page-1" id="ZImb_MyYqYFxsvIHfjOj">
    <mxGraphModel dx="880" dy="471" grid="0" gridSize="10" guides="1" tooltips="1" connect="1" arrows="1" fold="1" page="1" pageScale="1" pageWidth="827" pageHeight="1169" math="0" shadow="0">
      <root>
        <mxCell id="0" />
        <mxCell id="1" parent="0" />
        <mxCell id="VeYQora-GTSYb9Arf-ad-8" style="edgeStyle=orthogonalEdgeStyle;rounded=0;orthogonalLoop=1;jettySize=auto;html=1;exitX=0.5;exitY=0;exitDx=0;exitDy=0;labelBorderColor=#ffffff;" parent="1" source="VeYQora-GTSYb9Arf-ad-1" edge="1">
          <mxGeometry relative="1" as="geometry">
            <mxPoint x="374" y="7" as="targetPoint" />
          </mxGeometry>
        </mxCell>
        <mxCell id="VeYQora-GTSYb9Arf-ad-12" value="F" style="edgeLabel;html=1;align=center;verticalAlign=middle;resizable=0;points=[];labelBorderColor=#ffffff;" parent="VeYQora-GTSYb9Arf-ad-8" vertex="1" connectable="0">
          <mxGeometry x="-0.0062" y="-2" relative="1" as="geometry">
            <mxPoint y="1" as="offset" />
          </mxGeometry>
        </mxCell>
        <mxCell id="VeYQora-GTSYb9Arf-ad-9" style="edgeStyle=orthogonalEdgeStyle;rounded=0;orthogonalLoop=1;jettySize=auto;html=1;exitX=0.25;exitY=1;exitDx=0;exitDy=0;labelBorderColor=#ffffff;" parent="1" source="VeYQora-GTSYb9Arf-ad-1" edge="1">
          <mxGeometry relative="1" as="geometry">
            <mxPoint x="354" y="247" as="targetPoint" />
          </mxGeometry>
        </mxCell>
        <mxCell id="VeYQora-GTSYb9Arf-ad-13" value="bv" style="edgeLabel;html=1;align=center;verticalAlign=middle;resizable=0;points=[];labelBorderColor=#ffffff;" parent="VeYQora-GTSYb9Arf-ad-9" vertex="1" connectable="0">
          <mxGeometry x="0.1802" relative="1" as="geometry">
            <mxPoint as="offset" />
          </mxGeometry>
        </mxCell>
        <mxCell id="VeYQora-GTSYb9Arf-ad-10" style="edgeStyle=orthogonalEdgeStyle;rounded=0;orthogonalLoop=1;jettySize=auto;html=1;exitX=0.75;exitY=1;exitDx=0;exitDy=0;labelBorderColor=#ffffff;" parent="1" source="VeYQora-GTSYb9Arf-ad-1" edge="1">
          <mxGeometry relative="1" as="geometry">
            <mxPoint x="394" y="247" as="targetPoint" />
          </mxGeometry>
        </mxCell>
        <mxCell id="VeYQora-GTSYb9Arf-ad-11" value="mg" style="edgeLabel;html=1;align=center;verticalAlign=middle;resizable=0;points=[];labelBorderColor=#ffffff;" parent="VeYQora-GTSYb9Arf-ad-10" vertex="1" connectable="0">
          <mxGeometry x="0.1305" relative="1" as="geometry">
            <mxPoint as="offset" />
          </mxGeometry>
        </mxCell>
        <mxCell id="VeYQora-GTSYb9Arf-ad-1" value="" style="rounded=0;whiteSpace=wrap;html=1;labelBorderColor=#ffffff;" parent="1" vertex="1">
          <mxGeometry x="334" y="87" width="80" height="80" as="geometry" />
        </mxCell>
      </root>
    </mxGraphModel>
  </diagram>
</mxfile>
